<svg width="256" height="256" viewBox="0 0 256 256" fill="none" xmlns="http://www.w3.org/2000/svg">
<rect width="256" height="256" fill="#26242B"/>
<path d="M36.175 222L33.1959 96.425H47.0209L50 222H36.175Z" fill="#AB4967"/>
<path d="M77.875 211.5L76 68.5H89.825L91.7 161.1H94.15L131.566 96.425H150.816L105.175 167.575L154 211.5H134.925L94.15 174.225H91.7V211.5H77.875Z" fill="#AB4967"/>
<path d="M191.75 200.475C183.117 200.475 175.475 198.667 168.825 195.05C162.292 191.433 157.158 186.358 153.425 179.825C149.808 173.175 148 165.358 148 156.375V154.1C148 145.233 149.808 137.475 153.425 130.825C157.158 124.175 162.292 119.042 168.825 115.425C175.475 111.808 183.117 110 191.75 110C200.383 110 207.967 111.808 214.5 115.425C221.15 119.042 226.283 124.175 229.9 130.825C233.633 137.475 235.5 145.233 235.5 154.1V156.375C235.5 165.358 233.633 173.175 229.9 179.825C226.283 186.358 221.15 191.433 214.5 195.05C207.967 198.667 200.383 200.475 191.75 200.475Z" fill="#AB4967"/>
<path d="M45 34C58.8071 34 70 45.1929 70 59C70 72.8071 58.8071 84 45 84C31.1929 84 20 72.8071 20 59C20 45.1929 31.1929 34 45 34ZM44.5 48C38.701 48 34 52.701 34 58.5C34 64.299 38.701 69 44.5 69C50.299 69 55 64.299 55 58.5C55 52.701 50.299 48 44.5 48Z" fill="#AB4967"/>
</svg>
